<?xml version="1.0" encoding="UTF-8"?>
<svg width="18px" height="15px" viewBox="0 0 18 15" version="1.1" xmlns="http://www.w3.org/2000/svg" xmlns:xlink="http://www.w3.org/1999/xlink">
    <!-- Generator: Sketch 54.1 (76490) - https://sketchapp.com -->
    <title>Shape</title>
    <desc>Created with Sketch.</desc>
    <g id="Production" stroke="none" stroke-width="1" fill="none" fill-rule="evenodd">
        <g id="Home-_-widescreen" transform="translate(-1071.000000, -771.000000)" fill="#A698A6" fill-rule="nonzero">
            <path d="M1086.75,773.249812 L1084.5,773.249812 L1083,771 L1077,771 L1075.5,773.25 L1073.25,773.25 C1072.00688,773.25 1071,774.268875 1071,775.511625 L1071,783.75 C1071,784.993125 1072.00688,786 1073.25,786 L1086.75,786 C1087.99312,786 1089,785.004563 1089,783.761625 L1089,775.52325 C1089,774.280125 1087.99312,773.249812 1086.75,773.249812 Z M1087.5,783.761625 C1087.5,784.176187 1087.17056,784.5 1086.75,784.5 L1073.25,784.5 C1072.83638,784.5 1072.5,784.163625 1072.5,783.75 L1072.5,775.511625 C1072.5,775.091812 1072.83638,774.75 1073.25,774.75 L1076.30269,774.75 L1077.80269,772.5 L1082.22356,772.5 L1083.69712,774.75 L1086.75,774.75 C1087.1565,774.75 1087.5,775.104187 1087.5,775.523438 L1087.5,783.761625 Z M1080,775.5 C1077.92888,775.5 1076.25,777.179062 1076.25,779.25 C1076.25,781.320938 1077.92906,783 1080,783 C1082.07112,783 1083.75,781.321125 1083.75,779.25 C1083.75,777.178875 1082.07112,775.5 1080,775.5 Z M1080,781.5 C1078.75931,781.5 1077.75,780.490688 1077.75,779.25 C1077.75,778.009312 1078.75913,777 1080,777 C1081.24069,777 1082.25,778.009312 1082.25,779.25 C1082.25,780.490688 1081.2405,781.5 1080,781.5 Z" id="Shape"></path>
        </g>
    </g>
</svg>