<?xml version="1.0" encoding="UTF-8"?>
<svg width="12px" height="12px" viewBox="0 0 12 12" version="1.1" xmlns="http://www.w3.org/2000/svg" xmlns:xlink="http://www.w3.org/1999/xlink">
    <!-- Generator: Sketch 54.1 (76490) - https://sketchapp.com -->
    <title>Shape</title>
    <desc>Created with Sketch.</desc>
    <g id="Production" stroke="none" stroke-width="1" fill="none" fill-rule="evenodd">
        <g id="Details" transform="translate(-1234.000000, -1212.000000)" fill="#410441" fill-rule="nonzero">
            <g id="cross" transform="translate(1234.000000, 1212.000000)">
                <path d="M7.06070407,5.99995312 L11.7803403,1.28016625 C12.0732199,0.987288963 12.0732199,0.512347753 11.7803403,0.219657966 C11.4874607,-0.073219322 11.0127033,-0.073219322 10.7198237,0.219657966 L6,4.93925734 L1.28036376,0.219657966 C0.987484179,-0.073219322 0.512539258,-0.073219322 0.219659682,0.219657966 C-0.0732198941,0.512535254 -0.0732198941,0.987476465 0.219659682,1.28016625 L4.93948343,5.99995312 L0.219659682,10.71974 C-0.0732198941,11.0126173 -0.0732198941,11.4875585 0.219659682,11.7802483 C0.36609947,11.9266869 0.55810247,12 0.749917967,12 C0.941733465,12 1.13392397,11.9266869 1.28036376,11.7802483 L6,7.06064891 L10.7198237,11.7802483 C10.8662635,11.9266869 11.0582665,12 11.250082,12 C11.4418975,12 11.634088,11.9266869 11.7803403,11.7802483 C12.0732199,11.487371 12.0732199,11.0124298 11.7803403,10.71974 L7.06070407,5.99995312 Z" id="Shape"></path>
            </g>
        </g>
    </g>
</svg>