<?xml version="1.0" encoding="UTF-8"?>
<svg width="35px" height="34px" viewBox="0 0 35 34" version="1.1" xmlns="http://www.w3.org/2000/svg" xmlns:xlink="http://www.w3.org/1999/xlink">
    <!-- Generator: Sketch 54.1 (76490) - https://sketchapp.com -->
    <title>Path</title>
    <desc>Created with Sketch.</desc>
    <g id="Production" stroke="none" stroke-width="1" fill="none" fill-rule="evenodd">
        <g id="Sign-Up-/-6" transform="translate(-607.000000, -336.000000)" fill="#C467C4" stroke="#C467C4">
            <g id="male" transform="translate(608.000000, 337.000000)">
                <path d="M0.59,32 C0.866,32 1.09,31.776 1.09,31.5 C1.09,27.509 3.182,26.899 5.83,26.128 L6.31,25.987 C9.05,25.172 11.081,22.855 12.064,21 L12.857,21 C13.133,21 13.357,20.776 13.357,20.5 C13.357,17.629 11.5,15.221 11.421,15.12 C11.308,14.976 11.114,14.906 10.936,14.936 C10.823,14.956 10.25,14.994 9.945,14.032 C9.895,13.873 9.829,13.688 9.758,13.487 C9.515,12.799 8.946,11.189 9.418,11 C9.653,10.906 9.781,10.65 9.715,10.406 C9.507,9.635 9.067,5.978 10.908,3.475 C12.046,1.928 13.857,1.096 16.277,1 C16.331,1.007 21.825,0.999 21.871,4.122 C21.874,4.315 21.987,4.489 22.162,4.569 C22.188,4.581 24.766,5.823 23.124,9.975 C23.067,10.12 23.08,10.283 23.16,10.416 C23.713,11.338 23.205,13.011 22.949,13.616 C22.882,13.814 22.614,14.416 22.265,14.586 C22.163,14.635 22.068,14.639 21.954,14.599 C21.773,14.534 21.571,14.581 21.435,14.717 C18.957,17.195 19.604,20.464 19.633,20.602 C19.682,20.834 19.887,21 20.124,21 L21.394,21 C22.68,23.479 24.735,25.334 26.94,25.99 L27.316,26.101 C29.883,26.855 31.91,27.451 31.91,31.499 C31.91,31.775 32.134,31.999 32.41,31.999 C32.686,31.999 32.91,31.775 32.91,31.499 C32.91,26.702 30.209,25.908 27.598,25.141 L27.225,25.031 C24.225,24.138 22.583,21.169 22.152,20.281 C22.068,20.109 21.893,20 21.702,20 L20.562,20 C20.492,19.174 20.51,17.218 21.959,15.619 C22.212,15.647 22.47,15.601 22.709,15.483 C23.494,15.097 23.86,14.05 23.884,13.972 C23.926,13.874 24.855,11.675 24.138,10.126 C25.626,6.124 23.625,4.336 22.857,3.824 C22.519,-0.009 16.534,0.001 16.253,0.001 C13.499,0.109 11.43,1.078 10.103,2.882 C8.218,5.444 8.428,8.948 8.67,10.297 C7.829,11.03 8.414,12.684 8.816,13.82 C8.883,14.01 8.945,14.184 8.993,14.334 C9.382,15.56 10.204,15.912 10.782,15.941 C11.166,16.5 12.176,18.128 12.337,20 L11.759,20 C11.568,20 11.393,20.109 11.309,20.282 C10.477,21.994 8.595,24.264 6.026,25.029 L5.55,25.168 C2.991,25.914 0.09,26.758 0.09,31.5 C0.09,31.776 0.314,32 0.59,32 Z" id="Path"></path>
            </g>
        </g>
    </g>
</svg>